# xmcd
#
# Track frame offsets:
#	192795
#	193545
#	194295
#	195045
#	195795
#	196545
#	197295
#	198045
#	198795
#	199545
#	200295
#	201045
#	213195
#
# Disc length: 2888 seconds
#
# Revision: 0
# Processed by: cddbd v1.5.2PL0 Copyright (c) Steve Scherf et al.
# Submitted via: dBpowerAMP V4.0
#
DISCID=a9013e0d
DTITLE=Alan Jackson - What I Do
DYEAR=2004
DGENRE=Country
TTITLE0=Too Much of a Good Thing
TTITLE1=Rainy Day in June
TTITLE2=USA Today
TTITLE3=If Love was a River
TTITLE4=If French Fries were Fat Free
TTITLE5=You Don't Have to Paint me a Picture
TTITLE6=There Ya Go
TTITLE7=The Talkin' Song Repair Blues
TTITLE8=Strong Enough
TTITLE9=Monday Morning Church
TTITLE10=Burnin' the Honky Tonks Down
TTITLE11=To Do What I Do
TTITLE12=DATA
EXTD=
EXTT0=
EXTT1=
EXTT2=
EXTT3=
EXTT4=
EXTT5=
EXTT6=
EXTT7=
EXTT8=
EXTT9=
EXTT10=
EXTT11=
EXTT12=
PLAYORDER=
